#!OML:ASF F:\VICON\USERDATA\INSTALL\rory3\rory3.ASF
:FULLY-SPECIFIED
:DEGREES
20
root 0.10978400000000038 17.9323 7.425440000000004 -1.5349600000000017 -6.774009999999995 -6.826499999999999
lfemur -23.6461 -8.568709999999992 -8.137639999999998
ltibia 14.371099999999988
lfoot -6.5399400000000005 8.447529999999992
ltoes -1.989519999999997
rfemur 4.789950000000022 8.025849999999995 34.21560000000002
rtibia 25.469199999999976
rfoot -20.878500000000024 -6.9225699999999994
rtoes 1.03416
lowerback nan 2.028780000000002 6.435919999999991
upperback 0.8150029999999995 3.4599400000000027 2.115810000000001
thorax -4.1637699999999995 1.6129599999999984 -1.8408700000000038
lowerneck -16.0428 -2.88752 -1.3853100000000012
upperneck 20.839 -3.79951 0.5978280000000004
head 9.24414 -1.81835 -0.043117899999999765
lclavicle 1.5424399999999996e-14 3.578120000000003e-15
lhumerus -35.4921 4.69486 84.2032
lradius 23.4024
lwrist 5.00061
lhand -27.0956 22.7875
lfingers nan
lthumb -0.5124529999999998 52.7667
rclavicle 1.5424399999999996e-14 3.578120000000003e-15
rhumerus -21.328099999999992 -8.468360000000011 -83.31350000000002
rradius 29.305299999999995
rwrist 0.39640099999999023
rhand -18.6126 nan
rfingers nan
rthumb 7.679079999999999 -6.702480000000001
21
root 0.29418743713708995 17.976860567427156 9.24514360369595 -2.021644405275898 -5.178549459579768 -7.014203595057015
lfemur -22.669062159107717 -7.117118270343148 -9.794733251716206
ltibia 17.429654900490334
lfoot -7.870848942485374 6.094165668848459
ltoes -2.943949856997699
rfemur 3.1390253783756403 6.333879349601526 32.450061225410785
rtibia 33.51190884499786
rfoot -7.910831257575394 -4.011242586888825
rtoes 7.503756185415236
lowerback nan 1.6215866906318712 6.106820052234479
upperback 0.8259510874352876 2.9679759079419608 2.033041750680649
thorax -4.154496718982482 1.3648215150243819 -1.6511915737084841
lowerneck -16.45196837466529 -2.942831403562882 -1.5317564246697575
upperneck 21.02358833588159 -3.8620670160754935 0.6256520458022949
head 9.352871807254353 -1.8477225839445979 -0.03803255521071963
lclavicle -6.262158362623245e-15 -1.1470776389046928e-14
lhumerus -35.598256403563056 5.542103837609259 83.3011771907116
lradius 22.722665252968817
lwrist 2.678641296199102
lhand -25.14449584444121 28.608772246965533
lfingers nan
lthumb 1.3447085470575195 58.54437182314975
rclavicle -7.489820655207273e-15 -1.2174235319723886e-14
rhumerus -23.346578934349644 -11.7293458516192 -82.18466667073936
rradius 28.844965832849844
rwrist 1.5260905977680386
rhand -18.049682070026567 nan
rfingers nan
rthumb 8.233629720651583 -7.18492816525601
22
root 0.40338855271547025 18.037919190581324 7.1906024993963955 -2.4989064737289013 -4.973431672289184 -5.781212884073625
lfemur -20.286310228038055 -7.013303864130071 -11.88178309328078
ltibia 16.719217843833107
lfoot -8.819146467004515 5.341115081017289
ltoes -1.4962495860899727
rfemur -0.2876475070025961 6.750892742209137 30.038139156042725
rtibia 43.23327244622066
rfoot 2.9992825788262856 -3.932666346901294
rtoes 16.27860957962423
lowerback nan 1.5801916620688983 4.599837436521476
upperback 0.7594484531137455 2.7831519995365417 1.6597928917730023
thorax -4.445298692730322 1.3172135375529623 -1.0362196719048797
lowerneck -16.354415612301892 -3.020668867534722 -1.7191660641829798
upperneck 21.00293566407845 -3.9446448539157144 0.5778433458976874
head 9.338998212605777 -1.894187211930323 -0.04116092704141863
lclavicle 2.5373628720945002e-14 -1.6690714293790403e-14
lhumerus -35.82165487910185 4.69854611412642 83.63021372129995
lradius 23.30474244320557
lwrist 3.9250273742881374
lhand -25.342220189213588 26.445299624631474
lfingers nan
lthumb 1.0904510014462936 56.19583316487287
rclavicle 2.4537390899557634e-14 -1.758125747051141e-14
rhumerus -24.854999486900955 -13.677121965047405 -81.25083502685303
rradius 28.038980503817694
rwrist 2.659847380035733
rhand -15.711102300590301 nan
rfingers nan
rthumb 10.531828808483407 -12.054860029125027
23
root 0.48346032814852 18.07070797362102 6.987985343015856 -2.806807015546659 -5.041614506995211 -4.178050932787745
lfemur -18.66873790984843 -7.101505889623834 -13.967539632103616
ltibia 16.917595660840185
lfoot -10.063274731317712 5.795041363463295
ltoes -0.4660409939736643
rfemur -4.2195103646278085 7.087003779235413 27.70468034476849
rtibia 52.990379712856
rfoot 2.952777511299514 -6.931214917861671
rtoes 19.07254357655466
lowerback nan 1.6610411308235504 2.8406713718022565
upperback 0.7889274750228228 2.685930320912374 1.0154541637413863
thorax -4.66824236097983 1.3030515443509794 -0.5528918569332774
lowerneck -16.568721736249277 -3.05256721218987 -1.5875851013029574
upperneck 20.769695681788594 -4.041557457655393 0.6421817901718099
head 9.261830034553578 -1.922829962609178 -0.04611112419738905
lclavicle -7.369912682707624e-15 3.6283575036282254e-15
lhumerus -34.92426078954591 1.9765609387735505 84.75185414166283
lradius 24.614587198510634
lwrist 6.623258129648756
lhand -26.225006677075534 26.41654459704136
lfingers nan
lthumb 0.25604862585600985 56.0130704286638
rclavicle -8.173785690781594e-15 2.8992157724026784e-15
rhumerus -25.67666333343507 -14.174875495311849 -81.16892683693892
rradius 27.592129421899294
rwrist 2.2855980398304667
rhand -16.544422242384076 nan
rfingers nan
rthumb 9.70687894716812 -11.495616207613402
24
root 0.5336845270102775 18.06043730460752 7.567603458254494 -3.108165972104514 -4.6232544488054605 -3.467935149355938
lfemur -17.52021401974017 -7.859593816755838 -14.471568233009073
ltibia 17.381561894934876
lfoot -11.469127262806069 6.433302363858377
ltoes 0.9147969823130597
rfemur -8.123959045272429 6.292547766466883 27.048699392028347
rtibia 60.23053946706705
rfoot -3.222682499854457 -12.114597905001371
rtoes 18.013989322633186
lowerback nan 1.2770584205325077 2.1791239179872535
upperback 1.0181360803736756 2.231255648647389 1.1730898444492086
thorax -4.650561800971633 1.0515223020276971 -0.04130158384492666
lowerneck -16.737766882601314 -2.928219319337725 -1.698904099423421
upperneck 20.53704882006162 -3.803051047454732 0.6463107745890135
head 9.185539414626088 -1.8380937252991918 -0.0017529088635943602
lclavicle 3.699383318987157e-14 1.1080987936706424e-14
lhumerus -33.82840699241968 1.4914366979111522 84.73215134780807
lradius 25.832410320582778
lwrist 6.999757462864413
lhand -26.757524043515858 25.725059288313588
lfingers nan
lthumb -0.33951610911534286 55.249225725211375
rclavicle 3.617485660242976e-14 9.753851284833873e-15
rhumerus -25.917806959344396 -14.694403108255763 -80.94720639708532
rradius 26.87424199221146
rwrist 4.288676916854801
rhand -16.252911090710477 nan
rfingers nan
rthumb 9.97460796512472 -5.337302072330268
25
root 0.5726544480936302 18.045633537256464 8.989307310128847 -3.3942786656561577 -4.209575466010563 -2.6249306272672617
lfemur -16.699919002156744 -7.388949772576257 -15.060217039158307
ltibia 18.073725581688628
lfoot -13.436103561570222 6.093229403031801
ltoes 1.1665377485559705
rfemur -12.078785753937943 5.688126783668713 26.433473841309816
rtibia 64.18296457926505
rfoot -8.641444051752156 -16.530163493148265
rtoes 15.589213506312232
lowerback nan 0.9431010825166121 1.6166278721015903
upperback 1.3753550130821028 1.7460032312952252 1.366211754534623
thorax -4.396675496038347 0.8297990996746524 0.4672018459144396
lowerneck -17.009506940424647 -2.8468352582757204 -1.6651558204050088
upperneck 20.345785136308198 -3.6453921173592088 0.5326692767023997
head 9.124663382458378 -1.793504023231561 -0.03886853815571206
lclavicle -1.1256020182900823e-15 -1.4141449940838653e-14
lhumerus -32.382618487359736 0.6009663717534868 84.8368871862977
lradius 27.32063653940662
lwrist 7.837973706344393
lhand -27.184903409532883 23.478895342140298
lfingers nan
lthumb -0.6997296571899669 53.09615294017662
rclavicle -1.1948216105305875e-15 -1.5439888922192247e-14
rhumerus -25.675835821154113 -16.179506424388375 -80.60666958642793
rradius 25.873470270150484
rwrist 6.148072825910828
rhand -16.39382936918032 nan
rfingers nan
rthumb 9.825356755903558 -6.258490066001578
